<mxfile host="app.diagrams.net" modified="2024-05-13T05:27:44.614Z" agent="Mozilla/5.0 (Windows NT 10.0; Win64; x64) AppleWebKit/537.36 (KHTML, like Gecko) Chrome/124.0.0.0 Safari/537.36" etag="LGPJTpJ7u4QX5oLmu7bM" version="24.3.1" type="github">
  <diagram name="Trang-1" id="6H0vdRvesiFkzHeN9H8U">
    <mxGraphModel dx="1434" dy="830" grid="1" gridSize="10" guides="1" tooltips="1" connect="1" arrows="1" fold="1" page="1" pageScale="1" pageWidth="827" pageHeight="1169" math="0" shadow="0">
      <root>
        <mxCell id="0" />
        <mxCell id="1" parent="0" />
        <mxCell id="MKwPmSftYdMvqRQTUO3C-1" value="Cấp Clock cho ngoại vi" style="rounded=1;whiteSpace=wrap;html=1;" vertex="1" parent="1">
          <mxGeometry x="30" y="180" width="120" height="60" as="geometry" />
        </mxCell>
        <mxCell id="MKwPmSftYdMvqRQTUO3C-2" value="" style="shape=flexArrow;endArrow=classic;html=1;rounded=0;" edge="1" parent="1">
          <mxGeometry width="50" height="50" relative="1" as="geometry">
            <mxPoint x="160" y="209.5" as="sourcePoint" />
            <mxPoint x="230" y="209.5" as="targetPoint" />
          </mxGeometry>
        </mxCell>
        <mxCell id="MKwPmSftYdMvqRQTUO3C-3" value="Cấu hình ngoại vi" style="rounded=1;whiteSpace=wrap;html=1;" vertex="1" parent="1">
          <mxGeometry x="250" y="180" width="120" height="60" as="geometry" />
        </mxCell>
        <mxCell id="MKwPmSftYdMvqRQTUO3C-4" value="Sử dụng ngoại vi" style="rounded=1;whiteSpace=wrap;html=1;" vertex="1" parent="1">
          <mxGeometry x="470" y="180" width="120" height="60" as="geometry" />
        </mxCell>
        <mxCell id="MKwPmSftYdMvqRQTUO3C-5" value="" style="shape=flexArrow;endArrow=classic;html=1;rounded=0;" edge="1" parent="1">
          <mxGeometry width="50" height="50" relative="1" as="geometry">
            <mxPoint x="379" y="209.5" as="sourcePoint" />
            <mxPoint x="449" y="209.5" as="targetPoint" />
          </mxGeometry>
        </mxCell>
      </root>
    </mxGraphModel>
  </diagram>
</mxfile>
